# xmcd
#
# Track frame offsets: 
#        150
#        5468
#        23575
#        33306
#        46902
#        54376
#        60740
#        70430
#        82085
#        93484
#        100484
#        107944
#        115737
#        126722
#        134088
#        137521
#        142121
#        147128
#        162680
#        171278
#        183377
#        187416
#        202917
#        210193
#        213780
#        238832
#
# Disc length: 3261 seconds
#
# Revision: 0
# Processed by: cddbd v1.5.2PL0 Copyright (c) Steve Scherf et al.
# Submitted via: ExactAudioCopy v0.99pb5
#
DISCID=8f0cbb1a
DTITLE=Epiphany Publishing - 25 Action Bible Songs Volume 1
DYEAR=2007
DGENRE=Christian Rock
TTITLE0=The Bible
TTITLE1=Come Bless The Lord - Jesus In The Morning
TTITLE2=Tell Me The Stories of Jesus - Jesus Love Even Me
TTITLE3=His Banner Over Me Is Love - I've Got Peace Like A River
TTITLE4=Great Is Your Love
TTITLE5=How Great Is Your Love
TTITLE6=Love One Another - John 13 34
TTITLE7=This Is My Commandment - Deep And Wide
TTITLE8=Do To Others - Luke 6 31
TTITLE9=Love, Love
TTITLE10=Jesus, I Love You
TTITLE11=Bless The Lord, O My Soul
TTITLE12=Clap Your Hands - Psalm 47 1 2
TTITLE13=I Love To Take A Walk
TTITLE14=Here Is The Church
TTITLE15=Come And Go With Me
TTITLE16=Come Let Us Gather
TTITLE17=Heavenly Father I Appreciate You - God Is So Good
TTITLE18=I'm Gonna Sing - Rejoice In The Lord Always
TTITLE19=Rejoice In The Lord Always - Philippians 4 4
TTITLE20=The Birds Upon The Treetops
TTITLE21=God Made Everything - Genesis 1 1
TTITLE22=God Made Me
TTITLE23=I Thank God For You
TTITLE24=Silver And Gold I Have None - My God Is So Big
TTITLE25=Lyrics
EXTD=
EXTT0=
EXTT1=
EXTT2=
EXTT3=
EXTT4=
EXTT5=
EXTT6=
EXTT7=
EXTT8=
EXTT9=
EXTT10=
EXTT11=
EXTT12=
EXTT13=
EXTT14=
EXTT15=
EXTT16=
EXTT17=
EXTT18=
EXTT19=
EXTT20=
EXTT21=
EXTT22=
EXTT23=
EXTT24=
EXTT25=
PLAYORDER=
